<?xml version="1.0" encoding="utf-8"?>
<!-- Generator: Adobe Illustrator 15.1.0, SVG Export Plug-In . SVG Version: 6.00 Build 0)  -->
<!DOCTYPE svg PUBLIC "-//W3C//DTD SVG 1.1//EN" "http://www.w3.org/Graphics/SVG/1.1/DTD/svg11.dtd">
<svg version="1.1" xmlns="http://www.w3.org/2000/svg" xmlns:xlink="http://www.w3.org/1999/xlink" x="0px" y="0px" width="96px"
	 height="96px" viewBox="0 0 96 96" enable-background="new 0 0 96 96" xml:space="preserve">
<g id="Layer_1">
	<path fill="#FFFFFF" d="M55.186,74.78l19.854,15.346c0.339,0.253,0.531,0.383,0.726,0.383c0.403,0,0.397-0.68,0.403-1.173
		l-0.002-14.272c0-1.041,1.115-1.798,2.035-1.798h7.231c6.527,0,8.842-3.37,8.842-6.058c0-2.687,0-38.499,0-41.475
		c0-2.958-2.226-5.91-8.867-5.91H32.406c-6.453,0-8.792,2.88-8.792,5.91c0,3.069,0,38.602,0,41.475c0,2.858,2.413,6.044,8.824,6.044
		H50.01C50.01,73.252,53.401,73.372,55.186,74.78z"/>
	<path fill="#3294C9" d="M53.343,68.799h20.38c7.437,0,10.234-3.694,10.234-7.01c0-3.334,0-44.552,0-48.112
		c0-3.514-2.712-6.854-10.196-6.854H12.285C4.581,6.823,2,10.248,2,13.677c0,3.453,0,44.996,0,48.112
		c0,3.115,2.681,7.025,10.253,7.025h8.389c1.066,0,2.362,0.877,2.362,2.084L23,87.455c0.008,0.574,0,1.359,0.467,1.359
		c0.226,0,0.448-0.15,0.841-0.443l23.034-17.8C49.413,68.939,53.343,68.799,53.343,68.799z"/>
	<g>
		<g>
			<path fill="#3294C9" d="M38.423,46.338l-2.73,9.839h-8.985l11.715-38.331h11.374l11.886,38.331h-9.327l-2.957-9.839H38.423z
				 M48.147,39.854l-2.389-8.132c-0.683-2.274-1.365-5.118-1.934-7.393h-0.114c-0.569,2.274-1.137,5.175-1.763,7.393l-2.275,8.132
				H48.147z"/>
		</g>
		<g>
			<path fill="#FFFFFF" d="M38.423,46.338l-2.73,9.839h-8.985l11.715-38.331h11.374l11.886,38.331h-9.327l-2.957-9.839H38.423z
				 M48.147,39.854l-2.389-8.132c-0.683-2.274-1.365-5.118-1.934-7.393h-0.114c-0.569,2.274-1.137,5.175-1.763,7.393l-2.275,8.132
				H48.147z"/>
		</g>
	</g>
</g>
<g id="Layer_4">
</g>
<g id="Layer_3">
</g>
<g id="Layer_2">
</g>
</svg>
